<svg width="852" height="393" viewBox="0 0 852 393" fill="none" xmlns="http://www.w3.org/2000/svg">
<g clip-path="url(#clip0_1_2)">
<rect width="852" height="393" fill="white"/>
<rect x="-6" y="-4" width="858" height="397" fill="#91CBF9"/>
<path d="M720.766 107.208C716.21 106.707 711.332 105.349 706.883 103.341C696.407 98.612 688.7 90.7708 685.611 81.6974C684.459 78.3121 684.162 76.408 684.183 72.5255C684.211 67.2885 685.155 63.657 687.714 58.9408C689.564 55.5327 691.568 53.0367 694.984 49.8846C698.099 47.0096 700.422 45.33 703.775 43.5285C705.203 42.7612 705.831 42.3116 705.75 42.1138C705.685 41.9543 705.478 40.982 705.29 39.9531C702.86 26.6169 707.747 12.1994 717.665 3.44023C721.849 -0.254647 725.649 -2.2772 730.534 -3.40967C732.086 -3.76932 733.107 -3.86108 735.396 -3.84658C738.663 -3.82588 741.007 -3.38904 743.883 -2.26456C744.8 -1.90604 745.577 -1.6464 745.609 -1.68759C745.642 -1.72878 746.114 -2.87224 746.658 -4.2286C747.953 -7.45222 750.717 -12.4951 752.741 -15.3285C758.827 -23.8469 766.44 -29.3858 774.602 -31.2335C777.261 -31.8356 783.014 -31.8508 785.699 -31.2629C796.218 -28.959 806.094 -20.1763 812.05 -7.82999C812.66 -6.56447 813.19 -5.49502 813.226 -5.45345C813.263 -5.41188 814.579 -5.70396 816.151 -6.10251C819.432 -6.9346 821.832 -7.34245 825.111 -7.62507C836.949 -8.64551 849.987 -5.14207 859.082 1.50355C861.405 3.20017 864.992 6.70201 866.48 8.72367C872.583 17.0176 872.594 26.9897 866.511 35.1153C865.946 35.8703 865.487 36.5567 865.492 36.6407C865.497 36.7246 866.206 37.2584 867.067 37.8269C870.522 40.1069 874.057 43.6762 876.513 47.3629C884.912 59.972 882.702 75.1557 870.906 85.876C866.034 90.3031 860.38 93.1393 853.962 94.3753C850.774 94.9893 845.731 94.9599 842.499 94.3086C838.619 93.5265 834.935 92.0972 831.699 90.1184C830.748 89.5369 829.898 89.0655 829.81 89.0709C829.722 89.0763 829.043 89.8772 828.303 90.8507C826.739 92.9053 823.189 96.3779 820.919 98.0734C815.966 101.773 809.92 104.452 803.85 105.638C800.464 106.3 794.291 106.364 790.683 105.777C780.096 104.052 770.473 98.101 764.186 89.3909L763.074 87.8491L761.788 89.6633C753.109 101.907 736.64 108.95 720.766 107.208Z" fill="#BDDEFD"/>
<path d="M111.762 316C129.538 316 147.206 321.031 159.775 329.67C167.694 335.113 173.524 341.947 176.756 349.314C184.527 350.322 191.865 352.929 197.461 356.775C204.754 361.787 209 368.831 209 375.921C209 383.01 204.754 390.056 197.461 395.069C190.167 400.082 179.916 403 169.602 403H-6.85209C-13.4358 403 -19.9803 401.138 -24.6357 397.938C-29.2911 394.739 -32 390.24 -32 385.715C-32 381.19 -29.2911 376.694 -24.6357 373.494C-20.0089 370.314 -13.5159 368.458 -6.97327 368.435C-5.69653 360.236 -0.292384 352.345 8.19731 346.509C17.9735 339.79 31.7135 335.877 45.5391 335.877C48.8958 335.877 52.2451 336.114 55.5361 336.559C57.9444 334.089 60.687 331.774 63.7484 329.67C76.3179 321.031 93.9858 316 111.762 316Z" fill="#BDDEFD"/>
<path d="M304.337 63C314.147 63 323.898 66.4696 330.834 72.4278C335.205 76.1816 338.422 80.8946 340.206 85.975C344.494 86.6703 348.544 88.468 351.632 91.1204C355.657 94.5776 358 99.4353 358 104.325C358 109.214 355.657 114.073 351.632 117.53C347.607 120.987 341.95 123 336.257 123H238.878C235.245 123 231.633 121.716 229.064 119.509C226.495 117.303 225 114.2 225 111.079C225 107.959 226.495 104.858 229.064 102.651C231.617 100.458 235.201 99.1778 238.811 99.162C239.516 93.5077 242.498 88.0653 247.184 84.041C252.579 79.4069 260.161 76.7086 267.791 76.7086C269.644 76.7086 271.492 76.8718 273.308 77.1789C274.637 75.4754 276.151 73.8789 277.84 72.4278C284.777 66.4696 294.527 63 304.337 63Z" fill="#BDDEFD"/>
<path d="M512.565 220C521.785 220 530.949 223.527 537.468 229.585C541.576 233.401 544.599 238.193 546.276 243.358C550.306 244.065 554.113 245.892 557.015 248.589C560.798 252.104 563 257.043 563 262.013C563 266.984 560.798 271.924 557.015 275.439C553.232 278.954 547.915 281 542.565 281H451.044C447.629 281 444.234 279.695 441.82 277.451C439.405 275.208 438 272.054 438 268.881C438 265.708 439.405 262.556 441.82 260.312C444.219 258.082 447.587 256.781 450.981 256.765C451.643 251.016 454.446 245.483 458.849 241.392C463.92 236.68 471.046 233.937 478.217 233.937C479.958 233.937 481.696 234.103 483.403 234.415C484.652 232.683 486.074 231.06 487.662 229.585C494.181 223.527 503.345 220 512.565 220Z" fill="#BDDEFD"/>
<path d="M818.987 262.458C836.532 269.607 856.47 275.141 864.578 286.671C872.819 298.317 869.23 315.958 869.894 333.829C870.426 351.816 875.078 370.034 868.565 384.331C862.185 398.513 844.773 408.774 826.563 411.311C808.353 413.848 789.346 408.774 772.332 405.892C755.318 403.125 740.166 402.548 722.355 399.781C704.676 396.898 684.473 391.825 672.776 380.411C661.079 369.111 657.889 351.355 664.136 336.712C670.383 322.069 685.935 310.654 694.575 294.512C703.081 278.37 704.543 257.616 716.107 247.354C727.538 237.207 749.071 237.438 767.414 242.05C785.89 246.547 801.308 255.31 818.987 262.458Z" fill="#BDDEFD"/>
<path d="M85.4574 -12.5939C100.983 -4.6656 118.414 1.11785 126.26 15.0321C134.229 29.0827 132.613 51.264 134.638 73.4954C136.559 95.8778 142.009 118.318 137.629 136.496C133.354 154.523 119.363 168.281 104.063 172.458C88.7624 176.635 72.1614 171.374 57.4372 168.732C42.7224 166.233 29.7712 166.36 14.3772 163.906C-0.912967 161.301 -18.5327 156.107 -29.4258 142.537C-40.3094 129.11 -44.4759 107.163 -40.3513 88.5689C-36.2268 69.9745 -23.915 54.8836 -17.8753 34.2881C-11.9489 13.7 -12.3983 -12.2417 -3.3882 -25.6734C5.51807 -38.954 23.8744 -39.8683 39.8717 -35.1451C55.9729 -30.5731 69.8189 -20.5148 85.4574 -12.5939Z" fill="#BDDEFD"/>
</g>
<defs>
<clipPath id="clip0_1_2">
<rect width="852" height="393" fill="white"/>
</clipPath>
</defs>
</svg>
